<svg width="19" height="18" viewBox="0 0 19 18" fill="none" xmlns="http://www.w3.org/2000/svg">
<path d="M2.13631 8.99997C2.13611 7.59156 2.53255 6.21156 3.28023 5.018C4.02791 3.82443 5.09661 2.86556 6.36396 2.25117C7.6313 1.63679 9.04604 1.39173 10.4462 1.54406C11.8463 1.69639 13.1753 2.23995 14.2809 3.1125H13.14C13.0412 3.11345 12.9467 3.15338 12.8772 3.2236C12.8076 3.29383 12.7686 3.38866 12.7686 3.48749C12.7686 3.58632 12.8076 3.68116 12.8772 3.75138C12.9467 3.8216 13.0412 3.86153 13.14 3.86249H15.2613C15.3608 3.86249 15.4561 3.82298 15.5265 3.75265C15.5968 3.68232 15.6363 3.58693 15.6363 3.48747V1.36611C15.6368 1.31656 15.6274 1.26741 15.6088 1.22149C15.5902 1.17557 15.5626 1.1338 15.5278 1.09859C15.4929 1.06338 15.4514 1.03544 15.4057 1.01636C15.3599 0.997288 15.3109 0.987468 15.2613 0.987468C15.2118 0.987468 15.1627 0.997288 15.117 1.01636C15.0712 1.03544 15.0297 1.06338 14.9949 1.09859C14.96 1.1338 14.9324 1.17557 14.9138 1.22149C14.8952 1.26741 14.8858 1.31656 14.8863 1.36611V2.63595C13.2512 1.28705 11.1595 0.619315 9.04521 0.771228C6.93092 0.923141 4.95622 1.88305 3.53069 3.45186C2.10515 5.02067 1.33818 7.078 1.38883 9.19714C1.43949 11.3163 2.30389 13.3346 3.80275 14.8335C3.83742 14.869 3.87879 14.8972 3.92445 14.9166C3.97012 14.936 4.01917 14.9461 4.06878 14.9464C4.11839 14.9467 4.16755 14.9371 4.21344 14.9183C4.25932 14.8994 4.30101 14.8717 4.33609 14.8366C4.37117 14.8015 4.39893 14.7598 4.41779 14.7139C4.43664 14.6681 4.4462 14.6189 4.44591 14.5693C4.44563 14.5197 4.4355 14.4706 4.41612 14.425C4.39674 14.3793 4.36849 14.3379 4.33302 14.3033C3.6344 13.6084 3.08053 12.782 2.70346 11.8716C2.3264 10.9613 2.13363 9.98528 2.13631 8.99997Z" fill="#FD7E14"/>
<path d="M6.35875 15.7483C6.14598 15.6449 5.93539 15.5297 5.73296 15.4063C5.64808 15.3545 5.54609 15.3385 5.44942 15.3619C5.35276 15.3853 5.26934 15.4461 5.21752 15.531C5.1657 15.6159 5.14973 15.7179 5.17311 15.8145C5.19649 15.9112 5.25732 15.9946 5.3422 16.0464C5.56506 16.1825 5.79684 16.309 6.03105 16.4229C6.07535 16.4444 6.12344 16.457 6.1726 16.4599C6.22175 16.4629 6.27101 16.4561 6.31754 16.44C6.36408 16.4239 6.40699 16.3988 6.44382 16.3661C6.48065 16.3334 6.51069 16.2938 6.53221 16.2495C6.55373 16.2052 6.56631 16.1571 6.56925 16.1079C6.57218 16.0588 6.5654 16.0095 6.5493 15.963C6.5332 15.9165 6.50809 15.8736 6.47541 15.8367C6.44273 15.7999 6.40311 15.7699 6.35882 15.7483H6.35875Z" fill="#FD7E14"/>
<path d="M16.3878 5.72936C16.4093 5.77368 16.4393 5.81334 16.4761 5.84607C16.5128 5.8788 16.5557 5.90397 16.6022 5.92013C16.6488 5.93629 16.698 5.94312 16.7472 5.94025C16.7963 5.93738 16.8445 5.92485 16.8888 5.90338C16.9331 5.88191 16.9728 5.85193 17.0055 5.81513C17.0382 5.77834 17.0634 5.73546 17.0795 5.68894C17.0957 5.64242 17.1025 5.59317 17.0997 5.544C17.0968 5.49484 17.0843 5.44673 17.0628 5.40241C16.9498 5.16893 16.8235 4.93715 16.6874 4.71334C16.6618 4.67126 16.6282 4.63464 16.5885 4.60556C16.5487 4.57648 16.5036 4.55551 16.4558 4.54386C16.3591 4.52032 16.2571 4.53614 16.1721 4.58783C16.0871 4.63953 16.0261 4.72287 16.0026 4.81952C15.9791 4.91617 15.9949 5.01821 16.0466 5.10319C16.1703 5.30664 16.2851 5.51733 16.3878 5.72936Z" fill="#FD7E14"/>
<path d="M10.5259 16.4474C10.2891 16.4756 10.0496 16.4923 9.81376 16.498C9.71611 16.5017 9.62378 16.5434 9.55642 16.6142C9.48907 16.685 9.45201 16.7793 9.45315 16.8771C9.45429 16.9748 9.49352 17.0682 9.56251 17.1374C9.63149 17.2066 9.72477 17.2462 9.82248 17.2476C9.8254 17.2476 9.82853 17.2476 9.83145 17.2475C10.0907 17.2414 10.3538 17.2228 10.6138 17.1922C10.7125 17.1804 10.8025 17.1299 10.864 17.0519C10.9255 16.9738 10.9536 16.8745 10.9419 16.7758C10.9303 16.6771 10.8799 16.5871 10.8019 16.5255C10.7239 16.4639 10.6247 16.4358 10.526 16.4473L10.5259 16.4474Z" fill="#FD7E14"/>
<path d="M8.39168 16.3963C8.15842 16.3573 7.92386 16.3066 7.69461 16.2451C7.5985 16.2195 7.49612 16.233 7.41 16.2828C7.32388 16.3326 7.26107 16.4146 7.23538 16.5107C7.20969 16.6068 7.22323 16.7091 7.27303 16.7953C7.32282 16.8814 7.40479 16.9442 7.5009 16.9699C7.75321 17.0373 8.0114 17.0931 8.26829 17.136C8.31686 17.1441 8.36655 17.1425 8.41453 17.1314C8.46251 17.1203 8.50783 17.0999 8.5479 17.0713C8.58798 17.0426 8.62202 17.0064 8.6481 16.9646C8.67417 16.9229 8.69176 16.8764 8.69986 16.8278C8.70797 16.7792 8.70642 16.7295 8.69532 16.6815C8.68422 16.6336 8.66377 16.5882 8.63516 16.5482C8.60654 16.5081 8.57031 16.4741 8.52853 16.448C8.48676 16.4219 8.44026 16.4043 8.39168 16.3962V16.3963Z" fill="#FD7E14"/>
<path d="M17.5181 8.8192C17.4187 8.81679 17.3224 8.85394 17.2503 8.9225C17.1783 8.99106 17.1364 9.08541 17.1339 9.18483C17.1279 9.42196 17.1107 9.66144 17.0825 9.89692C17.0707 9.99568 17.0987 10.0951 17.1601 10.1732C17.2216 10.2514 17.3116 10.302 17.4104 10.3138C17.4254 10.3155 17.4404 10.3164 17.4554 10.3164C17.5471 10.3163 17.6355 10.2826 17.704 10.2217C17.7726 10.1608 17.8164 10.0769 17.8273 9.98593C17.8581 9.72722 17.8771 9.46407 17.8836 9.20353C17.8848 9.15429 17.8764 9.10529 17.8587 9.05933C17.841 9.01336 17.8144 8.97133 17.7805 8.93564C17.7465 8.89995 17.7059 8.87129 17.6609 8.85132C17.6158 8.83134 17.5673 8.82042 17.5181 8.8192Z" fill="#FD7E14"/>
<path d="M16.367 13.1086C16.2847 13.0528 16.1836 13.0319 16.086 13.0505C15.9883 13.0692 15.902 13.1258 15.8461 13.208C15.7127 13.4041 15.5686 13.5962 15.4174 13.7787C15.3852 13.8165 15.3609 13.8604 15.3458 13.9077C15.3308 13.955 15.3252 14.0048 15.3296 14.0542C15.3339 14.1037 15.348 14.1518 15.3711 14.1957C15.3941 14.2397 15.4257 14.2786 15.4639 14.3103C15.5022 14.342 15.5463 14.3657 15.5938 14.3802C15.6413 14.3946 15.6912 14.3995 15.7406 14.3945C15.79 14.3896 15.8379 14.3748 15.8816 14.3512C15.9252 14.3275 15.9637 14.2955 15.9949 14.2568C16.1612 14.0562 16.3199 13.845 16.4664 13.6293C16.4941 13.5886 16.5134 13.5428 16.5234 13.4946C16.5334 13.4464 16.5338 13.3967 16.5246 13.3484C16.5153 13.3 16.4967 13.2539 16.4696 13.2128C16.4426 13.1716 16.4077 13.1362 16.367 13.1086Z" fill="#FD7E14"/>
<path d="M16.8837 7.06532C16.9444 7.29366 16.995 7.52822 17.034 7.76257C17.0485 7.85011 17.0936 7.92967 17.1613 7.9871C17.2289 8.04453 17.3147 8.07611 17.4035 8.07624C17.4241 8.0762 17.4448 8.07448 17.4652 8.0711C17.5138 8.06305 17.5603 8.0455 17.6021 8.01945C17.6439 7.99341 17.6802 7.95939 17.7088 7.91932C17.7375 7.87926 17.7579 7.83395 17.7691 7.78597C17.7802 7.73799 17.7818 7.68829 17.7737 7.6397C17.731 7.3819 17.6753 7.12361 17.6085 6.87231C17.5829 6.7762 17.5202 6.6942 17.4341 6.64434C17.348 6.59448 17.2457 6.58085 17.1496 6.60644C17.0535 6.63204 16.9715 6.69476 16.9216 6.78082C16.8718 6.86687 16.8581 6.96921 16.8837 7.06532H16.8837Z" fill="#FD7E14"/>
<path d="M14.4086 14.7863C14.2253 14.938 14.0333 15.082 13.8379 15.2144C13.7971 15.2421 13.7622 15.2775 13.7351 15.3186C13.7081 15.3597 13.6893 15.4058 13.6801 15.4541C13.6708 15.5025 13.6711 15.5522 13.681 15.6004C13.691 15.6486 13.7103 15.6944 13.7379 15.7352C13.7656 15.776 13.8009 15.8109 13.8421 15.8379C13.8832 15.865 13.9292 15.8837 13.9776 15.893C14.026 15.9023 14.0757 15.902 14.1239 15.8921C14.1721 15.8821 14.2179 15.8628 14.2587 15.8352C14.4737 15.6896 14.6848 15.5312 14.8865 15.3646C14.9632 15.3012 15.0116 15.21 15.021 15.1109C15.0304 15.0119 15.0001 14.9132 14.9367 14.8365C14.8733 14.7598 14.7821 14.7115 14.6831 14.7021C14.584 14.6927 14.4853 14.723 14.4086 14.7863Z" fill="#FD7E14"/>
<path d="M17.2505 11.0466C17.1557 11.0165 17.0529 11.0252 16.9646 11.0709C16.8763 11.1165 16.8097 11.1953 16.7794 11.29C16.7076 11.515 16.6237 11.7397 16.5301 11.9581C16.5097 12.0035 16.4985 12.0525 16.4972 12.1023C16.4959 12.1521 16.5045 12.2017 16.5226 12.2481C16.5407 12.2945 16.5678 12.3369 16.6024 12.3727C16.637 12.4085 16.6785 12.437 16.7242 12.4567C16.77 12.4763 16.8192 12.4866 16.869 12.487C16.9188 12.4874 16.9682 12.4779 17.0143 12.459C17.0604 12.4401 17.1022 12.4122 17.1374 12.3769C17.1726 12.3417 17.2004 12.2997 17.2192 12.2536C17.3225 12.0132 17.4148 11.7655 17.4937 11.5177C17.5087 11.4708 17.5143 11.4214 17.5102 11.3724C17.506 11.3233 17.4923 11.2755 17.4697 11.2318C17.4471 11.188 17.4161 11.1491 17.3785 11.1174C17.3409 11.0856 17.2974 11.0615 17.2505 11.0466Z" fill="#FD7E14"/>
<path d="M12.5871 15.897C12.3709 15.9897 12.146 16.0734 11.9188 16.1459C11.8719 16.1608 11.8284 16.1849 11.7907 16.2167C11.7531 16.2484 11.7221 16.2873 11.6995 16.331C11.6769 16.3748 11.6632 16.4226 11.659 16.4716C11.6549 16.5207 11.6605 16.5701 11.6754 16.617C11.6904 16.6639 11.7144 16.7074 11.7462 16.7451C11.778 16.7827 11.8168 16.8137 11.8606 16.8363C11.9043 16.8589 11.9521 16.8726 12.0012 16.8768C12.0502 16.8809 12.0996 16.8753 12.1466 16.8604C12.3965 16.7807 12.6441 16.6886 12.8823 16.5866C12.9737 16.5475 13.0459 16.4736 13.0828 16.3812C13.1198 16.2889 13.1186 16.1856 13.0794 16.0942C13.0403 16.0027 12.9664 15.9306 12.874 15.8936C12.7817 15.8567 12.6784 15.8579 12.587 15.897H12.5871Z" fill="#FD7E14"/>
<path d="M6.46487 8.2339C6.46487 7.6193 6.06075 7.12683 5.43528 6.97917C5.09167 6.89779 4.73063 6.93528 4.41107 7.08552C4.09152 7.23577 3.83233 7.4899 3.67582 7.80643C3.63199 7.89532 3.62513 7.99794 3.65673 8.09187C3.68833 8.18581 3.75582 8.26341 3.84446 8.30774C3.93311 8.35206 4.03569 8.3595 4.1298 8.32842C4.2239 8.29735 4.30188 8.23029 4.3467 8.14189C4.42677 7.97573 4.56144 7.8421 4.72822 7.76332C4.89499 7.68455 5.08376 7.66542 5.26295 7.70912C5.36898 7.73412 5.71484 7.84598 5.71484 8.2339C5.71484 8.62501 5.26312 8.92669 4.78486 9.24612C4.24633 9.60555 3.63623 10.0129 3.63623 10.6875C3.63623 10.787 3.67574 10.8824 3.74607 10.9527C3.8164 11.023 3.91178 11.0625 4.01124 11.0625H6.08986C6.13941 11.063 6.18856 11.0537 6.23448 11.035C6.28039 11.0164 6.32216 10.9889 6.35737 10.954C6.39258 10.9191 6.42053 10.8776 6.4396 10.8319C6.45868 10.7862 6.4685 10.7371 6.4685 10.6875C6.4685 10.638 6.45868 10.5889 6.4396 10.5432C6.42053 10.4975 6.39258 10.456 6.35737 10.4211C6.32216 10.3862 6.28039 10.3587 6.23448 10.34C6.18856 10.3214 6.13941 10.3121 6.08986 10.3125H4.60415C4.76127 10.1637 4.98335 10.0154 5.20125 9.86979C5.79366 9.47428 6.46487 9.02604 6.46487 8.2339Z" fill="#FD7E14"/>
<path d="M10.0111 9.46872C10.0111 9.36927 9.97162 9.27389 9.90129 9.20357C9.83097 9.13325 9.73559 9.09374 9.63613 9.09374H9.33143V7.10154C9.33142 7.02388 9.3073 6.94813 9.26239 6.88477C9.21749 6.8214 9.15402 6.77353 9.08075 6.74778C9.00747 6.72203 8.92802 6.71966 8.85334 6.741C8.77866 6.76234 8.71245 6.80633 8.66385 6.86691L6.76541 9.23419C6.72125 9.28934 6.69356 9.35584 6.68553 9.42604C6.67751 9.49624 6.68947 9.56728 6.72005 9.63097C6.75063 9.69467 6.79857 9.74843 6.85836 9.78607C6.91816 9.82371 6.98737 9.8437 7.05802 9.84373H8.58145V10.8984C8.58097 10.948 8.59031 10.9971 8.60894 11.043C8.62757 11.089 8.65512 11.1307 8.68999 11.1659C8.72485 11.2011 8.76636 11.2291 8.81209 11.2482C8.85783 11.2672 8.90689 11.2771 8.95644 11.2771C9.00599 11.2771 9.05505 11.2672 9.10079 11.2482C9.14652 11.2291 9.18802 11.2011 9.22289 11.1659C9.25776 11.1307 9.28531 11.089 9.30394 11.043C9.32257 10.9971 9.33191 10.948 9.33143 10.8984V9.84373H9.63613C9.73559 9.84373 9.83098 9.80422 9.90131 9.73389C9.97163 9.66356 10.0111 9.56818 10.0111 9.46872ZM8.58145 9.09374H7.83965L8.58145 8.1685V9.09374Z" fill="#FD7E14"/>
<path d="M11.9305 6.52298C11.8822 6.51322 11.8325 6.51309 11.7841 6.5226C11.7358 6.53212 11.6898 6.55108 11.6488 6.57841C11.6078 6.60574 11.5726 6.6409 11.5452 6.68186C11.5178 6.72283 11.4988 6.7688 11.4892 6.81713L10.6455 11.0359C10.626 11.1334 10.646 11.2347 10.7011 11.3174C10.7563 11.4002 10.842 11.4576 10.9396 11.4772C10.9639 11.482 10.9886 11.4845 11.0134 11.4845C11.1 11.4844 11.1839 11.4543 11.2509 11.3994C11.3178 11.3444 11.3637 11.268 11.3807 11.1831L12.2245 6.96433C12.2341 6.91605 12.2342 6.86633 12.2247 6.81802C12.2152 6.7697 12.1962 6.72374 12.1689 6.68275C12.1416 6.64176 12.1065 6.60656 12.0656 6.57914C12.0247 6.55173 11.9788 6.53264 11.9305 6.52298Z" fill="#FD7E14"/>
<path d="M13.8548 11.0627C13.9289 11.0627 14.0013 11.0407 14.0629 10.9996C14.1245 10.9585 14.1726 10.9001 14.2011 10.8318L15.6074 7.45679C15.6311 7.39981 15.6405 7.33784 15.6345 7.27638C15.6286 7.21492 15.6076 7.15588 15.5733 7.10449C15.5391 7.05311 15.4927 7.01099 15.4383 6.98185C15.3838 6.95272 15.323 6.93749 15.2613 6.9375H13.3628C13.264 6.93846 13.1696 6.97839 13.1 7.04861C13.0305 7.11883 12.9915 7.21366 12.9915 7.31249C12.9915 7.41132 13.0305 7.50616 13.1 7.57638C13.1696 7.6466 13.264 7.68653 13.3628 7.68749H14.6988L13.5089 10.5434C13.4853 10.6004 13.476 10.6623 13.482 10.7237C13.488 10.7851 13.509 10.8441 13.5432 10.8955C13.5774 10.9468 13.6237 10.989 13.6781 11.0182C13.7324 11.0474 13.7931 11.0627 13.8548 11.0628V11.0627Z" fill="#FD7E14"/>
</svg>
