<svg width="686" height="170" viewBox="0 0 686 170" fill="none" xmlns="http://www.w3.org/2000/svg">
<path d="M104.18 64.2601V52.1501H86.32V136.27H104.18V92.0201C104.18 84.7301 106.68 78.76 111.68 74.1C116.68 69.45 124.6 67.1201 135.43 67.1201V50.29C120.79 50.29 110.37 54.9501 104.18 64.2601Z" fill="#FD7E14"/>
<path d="M157.4 20.5801C154.19 20.5801 151.42 21.6501 149.1 23.7801C146.78 25.9101 145.62 28.4901 145.62 31.5201C145.62 34.5501 146.78 37.1301 149.1 39.2601C151.42 41.3901 154.19 42.4601 157.4 42.4601C160.49 42.4601 163.2 41.4001 165.53 39.2601C167.85 37.1301 169.01 34.5501 169.01 31.5201C169.01 28.4901 167.85 25.9101 165.53 23.7801C163.21 21.6501 160.5 20.5801 157.4 20.5801Z" fill="#FD7E14"/>
<path d="M166.33 52.1401H148.47V136.26H166.33V52.1401Z" fill="#FD7E14"/>
<path d="M228.92 50.4602C216.54 50.4602 207.43 55.0602 201.6 64.2602V52.1502H183.74V169.93H201.6V123.16C207.08 133.03 216.24 137.97 229.1 137.97C240.65 137.97 250.26 133.91 257.94 125.77C265.62 117.64 269.4 107.12 269.28 94.2202C269.16 81.5502 265.29 71.0902 257.67 62.8402C250.06 54.5802 240.47 50.4602 228.92 50.4602ZM244.46 114.14C239.82 119.36 233.68 121.96 226.06 121.96C218.44 121.96 212.31 119.35 207.67 114.14C203.03 108.92 200.7 102.28 200.7 94.2002C200.7 86.1202 203.02 79.4802 207.67 74.2602C212.31 69.0402 218.44 66.4402 226.06 66.4402C233.68 66.4402 239.81 69.0502 244.46 74.2602C249.1 79.4802 251.43 86.1202 251.43 94.2002C251.43 102.28 249.1 108.93 244.46 114.14Z" fill="#FD7E14"/>
<path d="M55.86 120.27C49.6 120.13 46.47 116.77 46.47 110.19V38.5201C98.2 17.1801 190.98 1.35011 204.19 0.0901109C204.19 0.0901109 143.71 -1.43991 58.04 24.2301C53.92 25.4601 50.07 26.6801 46.48 27.8701V12.0001H28.63V34.5101C7.58999 43.3901 0.72998 51.2801 0.72998 59.1301C0.72998 68.1401 10.55 74.0601 15.64 74.7901C13.29 70.6101 11.55 61.6701 16.19 56.5401C19.09 53.3401 23.34 50.1901 28.63 47.1201V111.03C28.63 119.22 30.93 125.48 35.51 129.79C40.09 134.11 46.73 136.27 55.42 136.27C60.23 136.27 64.59 135.23 67.92 134.08C71.93 132.71 74.45 131.21 74.45 131.21L67.67 118.17C64.47 119.25 60.37 120.21 55.86 120.27Z" fill="#FD7E14"/>
<path d="M336.19 18.4802C347.28 18.4802 356.54 21.8002 363.99 28.4402C371.44 35.0802 375.16 43.4202 375.16 53.4702C375.16 63.4002 371.49 71.7802 364.16 78.5902C356.82 85.4102 347.5 88.8102 336.18 88.8102H303.44V136.27H285.25V18.4802H336.19ZM336.19 71.3102C342.54 71.3102 347.59 69.6402 351.35 66.2902C355.1 62.9402 356.98 58.7302 356.98 53.6402C356.98 48.4402 355.07 44.1702 351.26 40.8202C347.45 37.4702 342.43 35.8002 336.19 35.8002H303.45V71.3102H336.19Z" fill="#FD7E14"/>
<path d="M400.35 118.95H459.77V136.27H382.16V18.4802H400.35V118.95Z" fill="#FD7E14"/>
<path d="M552 18.4802H570.19V136.27H555.47L488.78 51.3902V136.27H470.59V18.4802H485.14L552 103.53V18.4802Z" fill="#FD7E14"/>
<path d="M664.15 136.27L636.78 88.8102H611.66V136.27H593.47V18.4802H644.4C655.49 18.4802 664.75 21.8002 672.2 28.4402C679.65 35.0802 683.37 43.4202 683.37 53.4702C683.37 61.3202 680.97 68.3402 676.18 74.5202C671.39 80.7002 664.95 84.8902 656.86 87.0802L685.27 136.28H664.15V136.27ZM611.67 35.8002V71.3102H644.41C650.76 71.3102 655.81 69.6402 659.57 66.2902C663.32 62.9402 665.2 58.7302 665.2 53.6402C665.2 48.4402 663.29 44.1702 659.48 40.8202C655.67 37.4702 650.65 35.8002 644.41 35.8002H611.67Z" fill="#FD7E14"/>
</svg>
