<svg width="19" height="18" viewBox="0 0 19 18" fill="none" xmlns="http://www.w3.org/2000/svg">
<path d="M14.6908 4.87869H3.58145C3.37141 4.87895 3.17006 4.96251 3.02156 5.11104C2.87305 5.25957 2.78953 5.46094 2.78931 5.67097V9.5203C2.7896 9.73027 2.87317 9.93156 3.02167 10.08C3.17016 10.2284 3.37148 10.3119 3.58145 10.3122H14.6908C14.9009 10.3119 15.1022 10.2284 15.2508 10.0799C15.3993 9.93141 15.4828 9.73005 15.4831 9.52002V5.67097C15.4828 5.46093 15.3993 5.25956 15.2508 5.11103C15.1022 4.96251 14.9009 4.87895 14.6908 4.87869ZM13.4779 9.81997H4.79434V9.16382H13.4779V9.81997ZM14.9913 9.5203C14.9912 9.59984 14.9596 9.6761 14.9033 9.73233C14.8471 9.78856 14.7708 9.82018 14.6912 9.82026H13.9701V8.91772C13.9701 8.8854 13.9638 8.85339 13.9514 8.82353C13.9391 8.79366 13.9209 8.76652 13.8981 8.74367C13.8752 8.72081 13.8481 8.70269 13.8182 8.69033C13.7884 8.67796 13.7563 8.67161 13.724 8.67163H4.54824C4.48298 8.67163 4.42038 8.69756 4.37423 8.74371C4.32808 8.78986 4.30215 8.85246 4.30215 8.91772V9.81997H3.58145C3.5019 9.81997 3.42561 9.78842 3.3693 9.73224C3.31299 9.67606 3.28126 9.59984 3.28107 9.5203V5.67097C3.28115 5.59136 3.31283 5.51503 3.36915 5.45876C3.42547 5.40249 3.50183 5.37088 3.58145 5.37088H14.6908C14.7704 5.37095 14.8467 5.4026 14.9029 5.45886C14.9592 5.51512 14.9908 5.59141 14.9909 5.67097L14.9913 9.5203Z" fill="#FD7E14"/>
<path d="M13.4942 5.70975C13.4001 5.70975 13.308 5.73766 13.2298 5.78996C13.1515 5.84225 13.0905 5.91658 13.0545 6.00355C13.0185 6.09051 13.0091 6.1862 13.0275 6.27851C13.0458 6.37083 13.0912 6.45562 13.1577 6.52217C13.2243 6.58871 13.3091 6.63403 13.4014 6.65237C13.4938 6.67072 13.5894 6.66127 13.6764 6.62523C13.7633 6.58919 13.8377 6.52818 13.8899 6.4499C13.9422 6.37163 13.9701 6.27961 13.9701 6.18548C13.9699 6.05933 13.9197 5.93839 13.8305 5.8492C13.7413 5.76001 13.6203 5.70986 13.4942 5.70975Z" fill="#FD7E14"/>
<path d="M4.54834 6.43143H12.1128C12.1781 6.43143 12.2407 6.4055 12.2869 6.35935C12.333 6.3132 12.3589 6.2506 12.3589 6.18533C12.3589 6.12007 12.333 6.05747 12.2869 6.01132C12.2407 5.96517 12.1781 5.93924 12.1128 5.93924H4.54834C4.48307 5.93924 4.42048 5.96517 4.37433 6.01132C4.32817 6.05747 4.30225 6.12007 4.30225 6.18533C4.30225 6.2506 4.32817 6.3132 4.37433 6.35935C4.42048 6.4055 4.48307 6.43143 4.54834 6.43143Z" fill="#FD7E14"/>
<path d="M4.54834 7.31726H12.1128C12.1781 7.31726 12.2407 7.29133 12.2869 7.24518C12.333 7.19903 12.3589 7.13644 12.3589 7.07117C12.3589 7.0059 12.333 6.9433 12.2869 6.89715C12.2407 6.851 12.1781 6.82507 12.1128 6.82507H4.54834C4.48307 6.82507 4.42048 6.851 4.37433 6.89715C4.32817 6.9433 4.30225 7.0059 4.30225 7.07117C4.30225 7.13644 4.32817 7.19903 4.37433 7.24518C4.42048 7.29133 4.48307 7.31726 4.54834 7.31726Z" fill="#FD7E14"/>
<path d="M13.7241 7.80469H4.54834C4.48307 7.80469 4.42048 7.83061 4.37433 7.87677C4.32817 7.92292 4.30225 7.98551 4.30225 8.05078C4.30225 8.11605 4.32817 8.17864 4.37433 8.2248C4.42048 8.27095 4.48307 8.29688 4.54834 8.29688H13.7241C13.7894 8.29688 13.852 8.27095 13.8981 8.2248C13.9443 8.17864 13.9702 8.11605 13.9702 8.05078C13.9702 7.98551 13.9443 7.92292 13.8981 7.87677C13.852 7.83061 13.7894 7.80469 13.7241 7.80469Z" fill="#FD7E14"/>
<path d="M9.13623 10.9688C9.07096 10.9688 9.00837 10.9947 8.96222 11.0408C8.91606 11.087 8.89014 11.1496 8.89014 11.2148V12.8752C8.89014 12.9405 8.91606 13.0031 8.96222 13.0492C9.00837 13.0954 9.07096 13.1213 9.13623 13.1213C9.2015 13.1213 9.26409 13.0954 9.31024 13.0492C9.3564 13.0031 9.38232 12.9405 9.38232 12.8752V11.2146C9.38225 11.1493 9.35629 11.0868 9.31015 11.0407C9.264 10.9946 9.20145 10.9687 9.13623 10.9688Z" fill="#FD7E14"/>
<path d="M7.61387 10.9688C7.5486 10.9688 7.486 10.9947 7.43985 11.0408C7.3937 11.087 7.36777 11.1496 7.36777 11.2148V11.5657C7.36748 11.8477 7.25533 12.1181 7.05595 12.3175C6.85656 12.5169 6.58622 12.6291 6.30423 12.6294H6.23926C6.17399 12.6294 6.11139 12.6553 6.06524 12.7015C6.01909 12.7476 5.99316 12.8102 5.99316 12.8755C5.99316 12.9408 6.01909 13.0033 6.06524 13.0495C6.11139 13.0957 6.17399 13.1216 6.23926 13.1216H6.3038C6.71641 13.1212 7.11201 12.9571 7.40376 12.6654C7.69552 12.3736 7.85959 11.978 7.85996 11.5654V11.2146C7.85994 11.1823 7.85356 11.1503 7.84118 11.1205C7.82881 11.0906 7.81068 11.0635 7.78782 11.0407C7.76497 11.0179 7.73785 10.9998 7.708 10.9874C7.67815 10.9751 7.64617 10.9687 7.61387 10.9688Z" fill="#FD7E14"/>
<path d="M12.033 12.6291H11.9683C11.6863 12.6287 11.416 12.5166 11.2166 12.3172C11.0172 12.1177 10.9051 11.8474 10.9048 11.5654V11.2145C10.9048 11.1493 10.8789 11.0867 10.8327 11.0405C10.7866 10.9944 10.724 10.9684 10.6587 10.9684C10.5934 10.9684 10.5308 10.9944 10.4847 11.0405C10.4385 11.0867 10.4126 11.1493 10.4126 11.2145V11.5654C10.413 11.9778 10.5771 12.3733 10.8686 12.6649C11.1602 12.9566 11.5556 13.1207 11.9681 13.1213H12.0327C12.098 13.1213 12.1606 13.0953 12.2068 13.0492C12.2529 13.003 12.2788 12.9404 12.2788 12.8752C12.2788 12.8099 12.2529 12.7473 12.2068 12.7012C12.1606 12.655 12.098 12.6291 12.0327 12.6291H12.033Z" fill="#FD7E14"/>
</svg>
