<svg width="19" height="18" viewBox="0 0 19 18" fill="none" xmlns="http://www.w3.org/2000/svg">
<path d="M15.7861 8.44025H15.5065V6.37735C15.5072 6.19742 15.4629 6.02018 15.3776 5.86175C15.2923 5.70333 15.1687 5.56877 15.0181 5.47032V4.51105H15.213V4.08917H13.6281V4.51105H13.823V5.47032C13.6723 5.56876 13.5487 5.70332 13.4634 5.86175C13.3781 6.02017 13.3338 6.19742 13.3345 6.37735V8.44004H12.2918V7.69852C12.516 7.64998 12.7168 7.52622 12.861 7.3478C13.0052 7.16937 13.0841 6.947 13.0845 6.71759V6.15678C13.0845 6.10084 13.0622 6.04718 13.0227 6.00763C12.9831 5.96807 12.9295 5.94584 12.8735 5.94584H11.2877C11.2318 5.94584 11.1781 5.96807 11.1385 6.00763C11.099 6.04718 11.0768 6.10084 11.0768 6.15678V6.71759C11.0772 6.94706 11.1561 7.16947 11.3004 7.34791C11.4446 7.52634 11.6456 7.65006 11.8699 7.69852V8.44025H10.0874V7.69852C10.3116 7.64994 10.5124 7.52616 10.6565 7.34774C10.8007 7.16932 10.8795 6.94697 10.8799 6.71759V6.15678C10.8799 6.10084 10.8577 6.04718 10.8181 6.00763C10.7785 5.96807 10.7249 5.94584 10.669 5.94584H9.0834C9.02746 5.94584 8.97381 5.96807 8.93425 6.00763C8.89469 6.04718 8.87247 6.10084 8.87247 6.15678V6.71759C8.87287 6.947 8.95171 7.16937 9.0959 7.3478C9.24009 7.52622 9.44096 7.64998 9.66517 7.69852V8.44025H2.5603C2.24806 8.4406 1.9487 8.5648 1.72791 8.78559C1.50712 9.00638 1.38292 9.30574 1.38257 9.61799C1.38257 9.67393 1.40479 9.72758 1.44435 9.76714C1.48391 9.8067 1.53756 9.82892 1.59351 9.82892H2.11016V16.6263H2.53204V9.82892H15.8141V16.6263H16.2359V9.82892H16.7526C16.8085 9.82892 16.8622 9.8067 16.9018 9.76714C16.9413 9.72758 16.9635 9.67393 16.9635 9.61799C16.9632 9.30579 16.839 9.00647 16.6183 8.78569C16.3976 8.56491 16.0983 8.44068 15.7861 8.44025ZM13.7564 6.37735C13.756 6.25321 13.7906 6.13147 13.8561 6.02607C13.9217 5.92067 14.0157 5.83587 14.1272 5.78138C14.1625 5.76397 14.1922 5.73703 14.213 5.7036C14.2338 5.67018 14.2448 5.6316 14.2448 5.59224V4.51105H14.5964V5.59245C14.5964 5.63182 14.6074 5.67039 14.6282 5.70382C14.649 5.73724 14.6787 5.76418 14.714 5.78159C14.8255 5.83607 14.9194 5.92084 14.9849 6.02621C15.0505 6.13157 15.085 6.25327 15.0846 6.37735V8.42345H13.7564V6.37735ZM11.4986 6.71759V6.36772H12.6623V6.71759C12.6623 6.87191 12.601 7.0199 12.4919 7.12901C12.3828 7.23813 12.2348 7.29943 12.0805 7.29943C11.9262 7.29943 11.7782 7.23813 11.6691 7.12901C11.5599 7.0199 11.4986 6.87191 11.4986 6.71759ZM9.29434 6.71759V6.36772H10.458V6.71759C10.458 6.87191 10.3967 7.0199 10.2876 7.12901C10.1785 7.23813 10.0305 7.29943 9.87618 7.29943C9.72187 7.29943 9.57387 7.23813 9.46476 7.12901C9.35564 7.0199 9.29434 6.87191 9.29434 6.71759ZM1.83419 9.40705C1.88006 9.24998 1.97558 9.112 2.10644 9.01376C2.2373 8.91553 2.39646 8.86233 2.56009 8.86213H15.7859C15.9495 8.86233 16.1087 8.91553 16.2395 9.01376C16.3704 9.112 16.4659 9.24998 16.5118 9.40705H1.83419Z" fill="#FD7E14"/>
<path d="M5.78577 10.7411H4.03857C3.77759 10.7414 3.52739 10.8453 3.34284 11.0298C3.1583 11.2143 3.0545 11.4645 3.0542 11.7255V12.2283C3.0542 12.2842 3.07642 12.3379 3.11598 12.3774C3.15554 12.417 3.20919 12.4392 3.26514 12.4392H4.31441V15.3413C4.04169 15.3896 3.79465 15.5323 3.61656 15.7444C3.43848 15.9565 3.34071 16.2245 3.34037 16.5015C3.34037 16.5574 3.36259 16.6111 3.40215 16.6507C3.44171 16.6902 3.49536 16.7124 3.55131 16.7124H6.2724C6.32835 16.7124 6.382 16.6902 6.42156 16.6507C6.46112 16.6111 6.48334 16.5574 6.48334 16.5015C6.48299 16.2246 6.38523 15.9566 6.20716 15.7445C6.02909 15.5323 5.78207 15.3896 5.50937 15.3413V12.4393H6.55921C6.61515 12.4393 6.6688 12.417 6.70836 12.3775C6.74792 12.3379 6.77014 12.2843 6.77014 12.2283V11.7256C6.76987 11.4646 6.66607 11.2144 6.48152 11.0298C6.29698 10.8453 6.04676 10.7414 5.78577 10.7411ZM6.03186 16.2906H3.79248C3.83835 16.1335 3.93387 15.9955 4.06473 15.8973C4.19559 15.799 4.35476 15.7458 4.51839 15.7456H4.52542C4.58136 15.7456 4.63501 15.7234 4.67457 15.6839C4.71413 15.6443 4.73636 15.5906 4.73636 15.5347V12.4393H5.08792V15.5347C5.08792 15.5906 5.11014 15.6443 5.1497 15.6839C5.18926 15.7234 5.24291 15.7456 5.29886 15.7456H5.30589C5.46953 15.7458 5.62871 15.799 5.75958 15.8973C5.89046 15.9955 5.98599 16.1335 6.03186 16.2906ZM6.34827 12.0174H3.47607V11.7256C3.47624 11.5765 3.53556 11.4335 3.64101 11.328C3.74646 11.2226 3.88944 11.1633 4.03857 11.1631H5.78577C5.9349 11.1633 6.07788 11.2226 6.18333 11.328C6.28878 11.4335 6.3481 11.5765 6.34827 11.7256V12.0174Z" fill="#FD7E14"/>
<path d="M10.0397 10.7411H8.29248C8.0315 10.7414 7.78129 10.8453 7.59675 11.0298C7.41221 11.2143 7.3084 11.4645 7.30811 11.7255V12.2283C7.30811 12.2842 7.33033 12.3379 7.36989 12.3774C7.40945 12.417 7.4631 12.4392 7.51904 12.4392H8.56853V15.3413C8.29581 15.3896 8.04877 15.5323 7.87068 15.7444C7.6926 15.9565 7.59482 16.2245 7.59449 16.5015C7.59449 16.5574 7.61671 16.6111 7.65627 16.6507C7.69583 16.6902 7.74948 16.7124 7.80543 16.7124H10.5265C10.5825 16.7124 10.6361 16.6902 10.6757 16.6507C10.7152 16.6111 10.7375 16.5574 10.7375 16.5015C10.7371 16.2246 10.6393 15.9566 10.4613 15.7445C10.2832 15.5323 10.0362 15.3896 9.76349 15.3413V12.4393H10.813C10.8689 12.4393 10.9226 12.417 10.9621 12.3775C11.0017 12.3379 11.0239 12.2843 11.0239 12.2283V11.7256C11.0236 11.4646 10.9199 11.2144 10.7353 11.0299C10.5508 10.8453 10.3006 10.7415 10.0397 10.7411ZM10.2858 16.2906H8.04639C8.09226 16.1335 8.18778 15.9955 8.31864 15.8973C8.4495 15.799 8.60866 15.7458 8.77229 15.7456H8.77932C8.83527 15.7456 8.88892 15.7234 8.92848 15.6839C8.96804 15.6443 8.99026 15.5906 8.99026 15.5347V12.4393H9.34182V15.5347C9.34182 15.5906 9.36405 15.6443 9.40361 15.6839C9.44316 15.7234 9.49682 15.7456 9.55276 15.7456H9.55979C9.72344 15.7458 9.88261 15.799 10.0135 15.8973C10.1444 15.9955 10.2399 16.1335 10.2858 16.2906ZM10.6022 12.0174H7.72998V11.7256C7.73015 11.5765 7.78947 11.4335 7.89492 11.328C8.00037 11.2226 8.14335 11.1633 8.29248 11.1631H10.0399C10.189 11.1633 10.332 11.2226 10.4374 11.328C10.5429 11.4335 10.6022 11.5765 10.6024 11.7256L10.6022 12.0174Z" fill="#FD7E14"/>
<path d="M14.2936 10.7411H12.5464C12.2854 10.7414 12.0352 10.8453 11.8507 11.0298C11.6661 11.2143 11.5623 11.4645 11.562 11.7255V12.2283C11.562 12.2842 11.5842 12.3379 11.6238 12.3774C11.6634 12.417 11.717 12.4392 11.7729 12.4392H12.8224V15.3413C12.5497 15.3896 12.3027 15.5323 12.1246 15.7444C11.9465 15.9565 11.8487 16.2245 11.8484 16.5015C11.8484 16.5574 11.8706 16.6111 11.9102 16.6507C11.9497 16.6902 12.0034 16.7124 12.0593 16.7124H14.7804C14.8364 16.7124 14.89 16.6902 14.9296 16.6507C14.9691 16.6111 14.9914 16.5574 14.9914 16.5015C14.991 16.2246 14.8932 15.9566 14.7152 15.7445C14.5371 15.5323 14.2901 15.3896 14.0174 15.3413V12.4393H15.0669C15.1228 12.4393 15.1765 12.417 15.216 12.3775C15.2556 12.3379 15.2778 12.2843 15.2778 12.2283V11.7256C15.2775 11.4646 15.1738 11.2144 14.9892 11.0299C14.8047 10.8453 14.5546 10.7415 14.2936 10.7411ZM14.5397 16.2906H12.3003C12.3462 16.1335 12.4417 15.9955 12.5725 15.8973C12.7034 15.799 12.8626 15.7458 13.0262 15.7456H13.0332C13.0892 15.7456 13.1428 15.7234 13.1824 15.6839C13.2219 15.6443 13.2442 15.5906 13.2442 15.5347V12.4393H13.5957V15.5347C13.5957 15.5906 13.618 15.6443 13.6575 15.6839C13.6971 15.7234 13.7507 15.7456 13.8067 15.7456H13.8137C13.9773 15.7458 14.1365 15.799 14.2674 15.8973C14.3983 15.9955 14.4938 16.1335 14.5397 16.2906ZM14.8561 12.0174H11.9839V11.7256C11.9841 11.5765 12.0434 11.4335 12.1488 11.328C12.2543 11.2226 12.3973 11.1633 12.5464 11.1631H14.2938C14.4429 11.1633 14.5859 11.2226 14.6914 11.328C14.7968 11.4335 14.8561 11.5765 14.8563 11.7256L14.8561 12.0174Z" fill="#FD7E14"/>
<path d="M1.59371 3.85706H2.03534C2.07099 4.05239 2.17403 4.22902 2.32651 4.3562C2.47899 4.48337 2.67126 4.55302 2.86981 4.55302C3.06837 4.55302 3.26063 4.48337 3.41311 4.3562C3.5656 4.22902 3.66863 4.05239 3.70428 3.85706H4.14591C4.18188 3.85707 4.21725 3.84788 4.24866 3.83038C4.28007 3.81287 4.30649 3.78762 4.3254 3.75703C4.34431 3.72644 4.35508 3.69152 4.3567 3.65559C4.35832 3.61967 4.35072 3.58392 4.33463 3.55176L3.75455 2.3916C3.73703 2.35656 3.71009 2.32709 3.67676 2.3065C3.64342 2.28591 3.60501 2.27501 3.56583 2.27502H3.08068V1.46643H2.6588V2.27502H2.17365C2.13447 2.27501 2.09606 2.28591 2.06273 2.3065C2.02939 2.32709 2.00245 2.35656 1.98493 2.3916L1.40485 3.55176C1.38876 3.58392 1.38117 3.61967 1.38278 3.65559C1.3844 3.69152 1.39517 3.72644 1.41408 3.75703C1.43299 3.78762 1.45941 3.81287 1.49082 3.83038C1.52224 3.84788 1.55761 3.85707 1.59357 3.85706H1.59371ZM2.86981 4.13127C2.78348 4.13114 2.69922 4.10486 2.62811 4.05592C2.557 4.00697 2.50237 3.93764 2.47142 3.85706H3.2682C3.23726 3.93764 3.18265 4.00696 3.11155 4.05591C3.04045 4.10486 2.95613 4.13113 2.86981 4.13127ZM2.30415 2.6969H3.43548L3.80462 3.43518H1.93508L2.30415 2.6969Z" fill="#FD7E14"/>
<path d="M5.48004 3.85706H5.92168C5.95732 4.05239 6.06036 4.22902 6.21284 4.3562C6.36533 4.48337 6.55759 4.55302 6.75615 4.55302C6.9547 4.55302 7.14696 4.48337 7.29945 4.3562C7.45193 4.22902 7.55497 4.05239 7.59061 3.85706H8.03239C8.06835 3.85707 8.10372 3.84788 8.13513 3.83038C8.16655 3.81287 8.19297 3.78762 8.21188 3.75703C8.23079 3.72644 8.24156 3.69152 8.24318 3.65559C8.24479 3.61967 8.23719 3.58392 8.22111 3.55176L7.64103 2.3916C7.6235 2.35656 7.59656 2.32709 7.56323 2.3065C7.5299 2.28591 7.49149 2.27501 7.45231 2.27502H6.96715V1.46643H6.54528V2.27502H6.06012C6.02094 2.27501 5.98253 2.28591 5.9492 2.3065C5.91587 2.32709 5.88893 2.35656 5.8714 2.3916L5.29133 3.55176C5.27524 3.58392 5.26764 3.61967 5.26926 3.65559C5.27087 3.69152 5.28165 3.72644 5.30056 3.75703C5.31947 3.78762 5.34588 3.81287 5.3773 3.83038C5.40871 3.84788 5.44408 3.85707 5.48004 3.85706ZM6.75608 4.13127C6.66976 4.13113 6.58551 4.10486 6.51441 4.05591C6.44331 4.00696 6.3887 3.93764 6.35775 3.85706H7.15447C7.12351 3.93764 7.06889 4.00697 6.99778 4.05592C6.92667 4.10486 6.8424 4.13114 6.75608 4.13127ZM6.1902 2.69697H7.32146L7.6906 3.43525H5.82134L6.1902 2.69697Z" fill="#FD7E14"/>
<path d="M9.36614 3.85705H9.80784C9.84345 4.0524 9.94646 4.22907 10.0989 4.35627C10.2514 4.48347 10.4437 4.55314 10.6423 4.55314C10.8408 4.55314 11.0331 4.48347 11.1856 4.35627C11.3381 4.22907 11.4411 4.0524 11.4767 3.85705H11.9184C11.9544 3.85706 11.9897 3.84787 12.0212 3.83037C12.0526 3.81286 12.079 3.78761 12.0979 3.75702C12.1168 3.72643 12.1276 3.69151 12.1292 3.65558C12.1308 3.61966 12.1232 3.58391 12.1071 3.55175L11.5268 2.39166C11.5092 2.35662 11.4823 2.32716 11.449 2.30656C11.4156 2.28597 11.3772 2.27507 11.3381 2.27509H10.8529V1.46649H10.431V2.27509H9.94586C9.90669 2.27507 9.86828 2.28597 9.83494 2.30656C9.80161 2.32716 9.77467 2.35662 9.75715 2.39166L9.17707 3.55182C9.16098 3.58398 9.15338 3.61973 9.155 3.65566C9.15661 3.69158 9.16739 3.7265 9.1863 3.75709C9.20521 3.78768 9.23162 3.81293 9.26304 3.83044C9.29445 3.84794 9.32982 3.85713 9.36579 3.85712L9.36614 3.85705ZM10.6422 4.13127C10.5559 4.13112 10.4717 4.10485 10.4006 4.0559C10.3295 4.00695 10.2749 3.93763 10.2439 3.85705H11.0406C11.0097 3.93763 10.9551 4.00695 10.884 4.0559C10.8129 4.10485 10.7286 4.13112 10.6423 4.13127H10.6422ZM10.0766 2.69689H11.2079L11.577 3.43517H9.70743L10.0766 2.69689Z" fill="#FD7E14"/>
</svg>
