<svg width="19" height="18" viewBox="0 0 19 18" fill="none" xmlns="http://www.w3.org/2000/svg">
<path d="M17.7494 2.07156H14.9913C14.5639 1.91814 10.8863 0.640839 6.88581 0.640839C4.63652 0.640839 3.08753 1.17901 2.18416 1.63056C1.91026 1.76708 1.68009 1.97763 1.51977 2.23831C1.35945 2.499 1.27539 2.7994 1.27713 3.10543V6.10074C1.27542 6.40679 1.35949 6.7072 1.5198 6.96791C1.68012 7.22861 1.91027 7.43919 2.18416 7.57576C2.92313 7.93602 3.70735 8.19485 4.51558 8.34526L5.47816 14.7542C5.5036 14.9294 5.5915 15.0895 5.72568 15.205C5.85985 15.3205 6.03125 15.3836 6.20828 15.3827H6.61286V15.5571C6.61286 16.0352 6.8028 16.4938 7.14089 16.8319C7.47898 17.1699 7.93754 17.3599 8.41567 17.3599C8.89381 17.3599 9.35236 17.1699 9.69045 16.8319C10.0285 16.4938 10.2185 16.0352 10.2185 15.5571V14.0074C10.2187 13.8117 10.2966 13.624 10.435 13.4856C10.5734 13.3472 10.761 13.2693 10.9568 13.2691H12.6175C12.6828 13.2691 12.7454 13.2432 12.7916 13.197C12.8377 13.1509 12.8636 13.0883 12.8636 13.023C12.8636 12.9577 12.8377 12.8951 12.7916 12.849C12.7454 12.8028 12.6828 12.7769 12.6175 12.7769H10.9572C10.631 12.7773 10.3182 12.907 10.0875 13.1377C9.85685 13.3684 9.72709 13.6812 9.72672 14.0074V15.5564C9.72672 15.904 9.58864 16.2373 9.34285 16.4831C9.09706 16.7289 8.76369 16.867 8.41609 16.867C8.0685 16.867 7.73513 16.7289 7.48934 16.4831C7.24355 16.2373 7.10547 15.904 7.10547 15.5564V15.382H7.44255C7.63828 15.3818 7.82594 15.3039 7.96434 15.1655C8.10275 15.0271 8.18061 14.8394 8.18083 14.6437V11.5003L9.02753 11.1635C9.07323 11.1453 9.11241 11.1137 9.13998 11.0729C9.16756 11.0322 9.18227 10.9841 9.18222 10.9349V9.46984C9.18224 9.43752 9.17589 9.40551 9.16352 9.37564C9.15116 9.34578 9.13304 9.31864 9.11018 9.29578C9.08733 9.27293 9.06019 9.2548 9.03032 9.24244C9.00046 9.23008 8.96845 9.22373 8.93613 9.22375H8.18027V8.52189C10.5008 8.35334 12.7899 7.88685 14.9913 7.13392H17.7494C17.8146 7.13392 17.8772 7.10799 17.9234 7.06184C17.9695 7.01569 17.9955 6.95309 17.9955 6.88782V2.31751C17.9954 2.25227 17.9695 2.18971 17.9233 2.14359C17.8772 2.09747 17.8146 2.07156 17.7494 2.07156ZM1.76931 6.10004V3.10543C1.76792 2.89091 1.82665 2.68028 1.93884 2.49742C2.05104 2.31456 2.21221 2.16679 2.40409 2.07085C3.26008 1.64307 4.73256 1.13303 6.88581 1.13303C10.5511 1.13303 13.942 2.22892 14.7019 2.4916V6.71387C13.9425 6.9767 10.5511 8.07259 6.88581 8.07259C4.73242 8.07259 3.26008 7.56254 2.40409 7.13476C2.21219 7.03881 2.051 6.89102 1.93881 6.70813C1.82661 6.52525 1.76789 6.31459 1.76931 6.10004ZM8.68989 9.71593V10.7679L8.18027 10.9707V9.71593H8.68989ZM7.68808 11.3282V14.6436C7.688 14.7088 7.66205 14.7714 7.61592 14.8175C7.56978 14.8636 7.50723 14.8896 7.44199 14.8897H6.20828C6.14928 14.89 6.09215 14.869 6.04742 14.8305C6.00269 14.792 5.97337 14.7387 5.96486 14.6803L5.02647 8.43231C5.64217 8.52191 6.26363 8.56618 6.88581 8.56478C7.15516 8.56478 7.42234 8.5592 7.68738 8.54804L7.68808 11.3282ZM17.5037 6.64173H15.1941V2.5636H17.5033L17.5037 6.64173Z" fill="#FD7E14"/>
<path d="M8.88071 4.60256C8.88071 4.09636 8.73061 3.60153 8.44938 3.18065C8.16815 2.75976 7.76843 2.43172 7.30077 2.238C6.8331 2.04429 6.3185 1.99361 5.82203 2.09236C5.32556 2.19112 4.86952 2.43487 4.51159 2.79281C4.15365 3.15074 3.9099 3.60678 3.81114 4.10325C3.71239 4.59972 3.76307 5.11432 3.95678 5.58199C4.1505 6.04965 4.47854 6.44937 4.89943 6.7306C5.32031 7.01183 5.81514 7.16193 6.32134 7.16193C6.99993 7.1613 7.65055 6.89145 8.13039 6.41161C8.61023 5.93177 8.88008 5.28115 8.88071 4.60256ZM4.27131 4.84865H8.3725C8.34439 5.07953 8.2772 5.30394 8.17379 5.51226H4.46931C4.36608 5.30392 4.29912 5.0795 4.27131 4.84865ZM4.46931 3.69229H8.1745C8.27768 3.90085 8.34464 4.12545 8.3725 4.35646H4.27131C4.29904 4.12542 4.366 3.9008 4.46931 3.69229ZM6.3219 2.53579C6.60639 2.53596 6.88776 2.59508 7.14826 2.70942C7.40876 2.82375 7.64274 2.99083 7.83545 3.20011H4.80821C5.00094 2.99082 5.23495 2.82374 5.49548 2.7094C5.756 2.59506 6.03739 2.53595 6.3219 2.53579ZM6.3219 6.66918C6.03736 6.66898 5.75595 6.6098 5.49542 6.49539C5.23489 6.38098 5.0009 6.21382 4.80821 6.00445H7.83545C7.64278 6.21381 7.40882 6.38097 7.14831 6.49538C6.88781 6.60979 6.60642 6.66897 6.3219 6.66918Z" fill="#FD7E14"/>
</svg>
