<svg width="19" height="18" viewBox="0 0 19 18" fill="none" xmlns="http://www.w3.org/2000/svg">
<g clip-path="url(#clip0_3_5143)">
<path d="M17.0309 7.26674H16.7548V6.51598C16.7548 5.65025 16.0505 4.94597 15.1848 4.94597H14.7932C14.627 4.32905 14.063 3.8736 13.3942 3.8736C12.5954 3.8736 11.9454 4.52349 11.9454 5.32239V7.71994H6.327V5.32239C6.327 4.52349 5.67707 3.8736 4.87821 3.8736C4.20954 3.8736 3.64549 4.32905 3.47931 4.94597H3.08767C2.22195 4.94597 1.51762 5.65025 1.51762 6.51598V7.26674H1.24154C0.632074 7.26674 0.13623 7.76262 0.13623 8.37205V9.62393C0.13623 10.2334 0.632074 10.7292 1.24154 10.7292H1.51766V11.484C1.51766 12.3497 2.22198 13.054 3.0877 13.054H3.47934C3.64553 13.6709 4.20957 14.1264 4.87825 14.1264C5.67714 14.1264 6.32703 13.4765 6.32703 12.6776V10.28H11.1434C11.2891 10.28 11.4071 10.162 11.4071 10.0163C11.4071 9.87069 11.2891 9.75267 11.1434 9.75267H6.327V8.24724H11.9454V12.6776C11.9454 13.4765 12.5954 14.1264 13.3942 14.1264C14.063 14.1264 14.627 13.6709 14.7932 13.054H15.1848C16.0505 13.054 16.7548 12.3497 16.7548 11.484V10.7292H17.0309C17.6404 10.7292 18.1362 10.2334 18.1362 9.62396V8.37208C18.1362 7.76258 17.6404 7.26674 17.0309 7.26674ZM1.51766 10.2019H1.24154C0.922852 10.2019 0.663574 9.94262 0.663574 9.62396V8.37208C0.663574 8.05339 0.922852 7.79412 1.24154 7.79412H1.51766V10.2019ZM5.79966 12.6776C5.79966 13.1857 5.38629 13.599 4.87821 13.599C4.3701 13.599 3.95677 13.1857 3.95677 12.6776V7.35762C3.95677 7.21196 3.83871 7.09394 3.69309 7.09394C3.54748 7.09394 3.42942 7.21196 3.42942 7.35762V12.5267H3.0877C2.51276 12.5267 2.045 12.059 2.045 11.484V6.51594C2.045 5.94099 2.51276 5.47328 3.0877 5.47328H3.42942V6.18948C3.42942 6.33513 3.54748 6.45315 3.69309 6.45315C3.83871 6.45315 3.95677 6.33513 3.95677 6.18948V5.32235C3.95677 4.81427 4.37013 4.4009 4.87821 4.4009C5.38632 4.4009 5.79966 4.81427 5.79966 5.32235V12.6776ZM14.3157 12.6776C14.3157 13.1857 13.9024 13.599 13.3942 13.599C12.8861 13.599 12.4728 13.1857 12.4728 12.6776V5.32235C12.4728 4.81427 12.8861 4.4009 13.3942 4.4009C13.9024 4.4009 14.3157 4.81427 14.3157 5.32235V12.6776ZM16.2275 11.484C16.2275 12.0589 15.7597 12.5267 15.1848 12.5267H14.8431V5.47328H15.1848C15.7597 5.47328 16.2275 5.94103 16.2275 6.51594V11.484ZM17.6089 9.62396C17.6089 9.94262 17.3496 10.2019 17.0309 10.2019H16.7548V7.79408H17.0309C17.3496 7.79408 17.6089 8.05336 17.6089 8.37205V9.62396Z" fill="#FD7E14"/>
</g>
<defs>
<clipPath id="clip0_3_5143">
<rect width="18" height="18" fill="white" transform="translate(0.13623)"/>
</clipPath>
</defs>
</svg>
