<svg width="19" height="18" viewBox="0 0 19 18" fill="none" xmlns="http://www.w3.org/2000/svg">
<path d="M16.091 1.62891H3.18163C2.91871 1.6292 2.66664 1.73378 2.48073 1.91969C2.29482 2.10561 2.19024 2.35767 2.18994 2.62059V15.53C2.19043 15.7928 2.29508 16.0447 2.48097 16.2305C2.66686 16.4162 2.91882 16.5208 3.18163 16.5211H16.091C16.3539 16.5208 16.606 16.4162 16.792 16.2303C16.9779 16.0444 17.0825 15.7923 17.0828 15.5294V2.62003C17.0824 2.35718 16.9777 2.10524 16.7918 1.91944C16.6059 1.73365 16.3539 1.62917 16.091 1.62891ZM16.5906 15.5294C16.5905 15.6618 16.5378 15.7888 16.4441 15.8825C16.3504 15.9761 16.2234 16.0288 16.091 16.0289H3.18163C3.0492 16.0288 2.92224 15.9761 2.82859 15.8824C2.73495 15.7888 2.68228 15.6618 2.68213 15.5294V2.62003C2.68239 2.48769 2.73512 2.36085 2.82875 2.26732C2.92238 2.17379 3.04928 2.12121 3.18163 2.12109H16.091C16.2235 2.12121 16.3505 2.17386 16.4441 2.26751C16.5378 2.36116 16.5905 2.48814 16.5906 2.62059V15.5294Z" fill="#FD7E14"/>
<path d="M10.8414 3.60188H7.17838C6.96565 3.60206 6.76169 3.68664 6.61125 3.83705C6.46081 3.98746 6.3762 4.19141 6.37598 4.40414V13.7459C6.37877 13.9568 6.46453 14.1582 6.61469 14.3064C6.76486 14.4546 6.96734 14.5376 7.17831 14.5376C7.38928 14.5376 7.59177 14.4546 7.74193 14.3064C7.89209 14.1582 7.97786 13.9568 7.98065 13.7459V9.99455H10.8414C11.2629 9.99734 11.6808 9.91673 12.0711 9.75736C12.4613 9.59798 12.8162 9.36298 13.1153 9.0659C13.4143 8.76881 13.6517 8.41551 13.8136 8.02632C13.9756 7.63713 14.059 7.21975 14.059 6.79821C14.059 6.37667 13.9756 5.95929 13.8136 5.57011C13.6517 5.18092 13.4143 4.82761 13.1153 4.53053C12.8162 4.23344 12.4613 3.99845 12.0711 3.83907C11.6808 3.67969 11.2629 3.59908 10.8414 3.60188ZM10.8414 9.50236H7.73455C7.70223 9.50234 7.67022 9.5087 7.64036 9.52106C7.61049 9.53342 7.58335 9.55154 7.5605 9.5744C7.53764 9.59725 7.51952 9.62439 7.50716 9.65426C7.49479 9.68412 7.48844 9.71613 7.48846 9.74846V13.7459C7.48673 13.827 7.4533 13.9042 7.39532 13.9609C7.33735 14.0177 7.25944 14.0495 7.17831 14.0495C7.09718 14.0495 7.01928 14.0177 6.9613 13.9609C6.90333 13.9042 6.86989 13.827 6.86816 13.7459V4.40414C6.86828 4.32191 6.901 4.24309 6.95916 4.18496C7.01731 4.12683 7.09615 4.09414 7.17838 4.09406H10.8414C11.1981 4.09149 11.5519 4.15954 11.8822 4.29428C12.2126 4.42902 12.513 4.6278 12.7661 4.87916C13.0193 5.13052 13.2203 5.42949 13.3574 5.75885C13.4945 6.08821 13.5651 6.44145 13.5651 6.79821C13.5651 7.15498 13.4945 7.50821 13.3574 7.83757C13.2203 8.16693 13.0193 8.46591 12.7661 8.71727C12.513 8.96863 12.2126 9.1674 11.8822 9.30215C11.5519 9.43689 11.1981 9.50493 10.8414 9.50236Z" fill="#FD7E14"/>
<path d="M10.8414 4.71394H7.73462C7.66935 4.71394 7.60676 4.73986 7.5606 4.78602C7.51445 4.83217 7.48853 4.89476 7.48853 4.96003V8.63583C7.48853 8.7011 7.51445 8.76369 7.5606 8.80984C7.60676 8.85599 7.66935 8.88192 7.73462 8.88192H10.8414C11.1166 8.88418 11.3894 8.83195 11.6442 8.72823C11.899 8.62451 12.1308 8.47137 12.3262 8.27762C12.5215 8.08388 12.6765 7.85338 12.7823 7.59942C12.8882 7.34545 12.9426 7.07305 12.9426 6.79793C12.9426 6.52281 12.8882 6.25041 12.7823 5.99644C12.6765 5.74248 12.5215 5.51198 12.3262 5.31823C12.1308 5.12449 11.899 4.97135 11.6442 4.86763C11.3894 4.76391 11.1166 4.71168 10.8414 4.71394ZM10.8414 8.38973H7.98071V5.20613H10.8414C11.0517 5.20415 11.2603 5.24386 11.4552 5.32297C11.6501 5.40208 11.8273 5.51902 11.9767 5.66703C12.1261 5.81504 12.2447 5.99118 12.3257 6.18529C12.4066 6.3794 12.4483 6.58762 12.4483 6.79793C12.4483 7.00824 12.4066 7.21646 12.3257 7.41057C12.2447 7.60468 12.1261 7.78082 11.9767 7.92883C11.8273 8.07684 11.6501 8.19378 11.4552 8.27289C11.2603 8.352 11.0517 8.39171 10.8414 8.38973Z" fill="#FD7E14"/>
</svg>
