<svg width="19" height="18" viewBox="0 0 19 18" fill="none" xmlns="http://www.w3.org/2000/svg">
<g clip-path="url(#clip0_3_5190)">
<mask id="mask0_3_5190" style="mask-type:luminance" maskUnits="userSpaceOnUse" x="0" y="0" width="19" height="18">
<path d="M0.63623 1.90735e-06H18.6362V18H0.63623V1.90735e-06Z" fill="white"/>
</mask>
<g mask="url(#mask0_3_5190)">
<path d="M6.99314 12.313C7.31767 12.5759 7.75846 12.558 8.07272 12.2809C8.50177 11.9025 9.04511 11.6752 9.63707 11.6724C10.229 11.6697 10.7745 11.8918 11.207 12.2662C11.5239 12.5403 11.9648 12.5541 12.2869 12.2881C12.7465 11.9086 12.7636 11.1469 12.3139 10.7523C11.5757 10.1046 10.6414 9.71901 9.628 9.72376C8.61451 9.72854 7.68389 10.1229 6.95183 10.7775C6.5058 11.1763 6.52999 11.9378 6.99314 12.313Z" stroke="#FD7E14" stroke-width="0.5" stroke-miterlimit="10" stroke-linecap="round" stroke-linejoin="round"/>
<path d="M4.11106 9.96932L4.11169 9.96985C4.47275 10.2624 4.96992 10.2046 5.27881 9.84716C6.37544 8.57805 7.9189 7.78313 9.62971 7.77512C11.3405 7.76707 12.8913 8.54743 13.9997 9.8062C14.3119 10.1608 14.8096 10.2138 15.1679 9.91793L15.1686 9.9174C15.5942 9.56587 15.6429 8.88089 15.2726 8.45905C13.8408 6.82776 11.8343 5.81607 9.62064 5.82648C7.40696 5.83688 5.41001 6.86735 3.99339 8.51203C3.62706 8.93735 3.68212 9.62184 4.11106 9.96932Z" stroke="#FD7E14" stroke-width="0.5" stroke-miterlimit="10" stroke-linecap="round" stroke-linejoin="round"/>
<path d="M1.26127 7.6517L1.26215 7.65244C1.63006 7.9505 2.14422 7.89073 2.44382 7.51122C4.19154 5.29736 6.75904 3.89125 9.62248 3.87779C12.4859 3.86436 15.0664 5.24628 16.8347 7.44365C17.1378 7.82031 17.6525 7.87523 18.0176 7.57373L18.0185 7.57299C18.4306 7.23271 18.4936 6.57427 18.1514 6.14923C16.0577 3.54862 13.003 1.91322 9.61341 1.92915C6.22386 1.94507 3.18449 3.60909 1.11513 6.22925C0.776888 6.65748 0.84604 7.31533 1.26127 7.6517Z" stroke="#FD7E14" stroke-width="0.5" stroke-miterlimit="10" stroke-linecap="round" stroke-linejoin="round"/>
<path d="M9.6362 16.071C9.03018 16.071 8.53711 15.5759 8.53711 14.9674C8.53711 14.359 9.03018 13.8639 9.6362 13.8639C10.2422 13.8639 10.7353 14.359 10.7353 14.9674C10.7353 15.5759 10.2422 16.071 9.6362 16.071Z" stroke="#FD7E14" stroke-width="0.5" stroke-miterlimit="10" stroke-linecap="round" stroke-linejoin="round"/>
</g>
</g>
<defs>
<clipPath id="clip0_3_5190">
<rect width="18" height="18" fill="white" transform="translate(0.63623)"/>
</clipPath>
</defs>
</svg>
